<svg width="144" height="27" viewBox="0 0 144 27" fill="none" xmlns="http://www.w3.org/2000/svg">
<path d="M11.4042 0.301674H17.0509V26.6983H13.2126V7.76816L10.4077 26.6983H6.56939L3.54304 8.03212V26.6983H0V0.301674H5.64673L8.63617 19.0433L11.4042 0.301674Z" fill="#1F2124"/>
<path d="M19.0891 6.63687C19.0891 4.52514 19.6181 2.89106 20.6761 1.73463C21.7341 0.578211 23.2596 0 25.2525 0C27.2455 0 28.771 0.578211 29.829 1.73463C30.887 2.89106 31.416 4.52514 31.416 6.63687V20.3631C31.416 22.4749 30.887 24.1089 29.829 25.2654C28.771 26.4218 27.2455 27 25.2525 27C23.2596 27 21.7341 26.4218 20.6761 25.2654C19.6181 24.1089 19.0891 22.4749 19.0891 20.3631V6.63687ZM23.1489 20.6271C23.1489 22.3617 23.8501 23.229 25.2525 23.229C26.655 23.229 27.3562 22.3617 27.3562 20.6271V6.3729C27.3562 4.63827 26.655 3.77095 25.2525 3.77095C23.8501 3.77095 23.1489 4.63827 23.1489 6.3729V20.6271Z" fill="#1F2124"/>
<path d="M39.8932 0.301674C41.9108 0.301674 43.424 0.854747 44.4328 1.96089C45.4415 3.06704 45.9459 4.68855 45.9459 6.82542V20.1746C45.9459 22.3114 45.4415 23.933 44.4328 25.0391C43.424 26.1452 41.9108 26.6983 39.8932 26.6983H33.4715V0.301674H39.8932ZM37.5312 22.9274H39.8194C40.4837 22.9274 40.9881 22.7263 41.3326 22.324C41.7017 21.9218 41.8862 21.2682 41.8862 20.3631V6.63687C41.8862 5.73184 41.7017 5.07821 41.3326 4.67598C40.9881 4.27374 40.4837 4.07262 39.8194 4.07262H37.5312V22.9274Z" fill="#1F2124"/>
<path d="M57.5868 11.426V15.1969H52.0139V22.9274H59.0262V26.6983H47.9542V0.301674H59.0262V4.07262H52.0139V11.426H57.5868Z" fill="#1F2124"/>
<path d="M69.4477 26.6983C69.3001 26.2709 69.2017 25.8687 69.1524 25.4916C69.1032 25.1145 69.0786 24.4358 69.0786 23.4553V19.3073C69.0786 18.1006 68.8695 17.2458 68.4512 16.743C68.0329 16.2151 67.3563 15.9511 66.4213 15.9511H65.0189V26.6983H60.9592V0.301674H67.0857C69.1771 0.301674 70.7025 0.804468 71.6621 1.81005C72.6217 2.7905 73.1015 4.31145 73.1015 6.3729V8.44693C73.1015 11.162 72.2157 12.9469 70.4442 13.8017C71.4038 14.2039 72.0927 14.8827 72.511 15.838C72.9292 16.7682 73.1384 17.9623 73.1384 19.4204V23.493C73.1384 24.2472 73.163 24.8631 73.2122 25.3408C73.2614 25.7933 73.3844 26.2458 73.5813 26.6983H69.4477ZM65.0189 12.1802H66.6059C67.4178 12.1802 68.0206 11.9665 68.4143 11.5391C68.8326 11.1117 69.0417 10.3952 69.0417 9.38966V6.78771C69.0417 5.8324 68.8695 5.14106 68.525 4.71369C68.2052 4.28631 67.6885 4.07262 66.975 4.07262H65.0189V12.1802Z" fill="#1F2124"/>
<path d="M78.8425 26.6983H75.1887V0.301674H80.2818L84.4523 16.102V0.301674H88.0691V26.6983H83.8987L78.8425 7.57961V26.6983Z" fill="#1F2124"/>
<path d="M100.172 6.63687C100.172 4.5 100.677 2.86592 101.685 1.73463C102.694 0.578211 104.183 0 106.151 0C108.119 0 109.608 0.578211 110.617 1.73463C111.626 2.86592 112.13 4.5 112.13 6.63687V7.46648H108.292V6.3729C108.292 5.46788 108.119 4.81424 107.775 4.41201C107.431 3.98464 106.926 3.77095 106.262 3.77095C105.597 3.77095 105.093 3.98464 104.749 4.41201C104.404 4.81424 104.232 5.46788 104.232 6.3729C104.232 7.47905 104.515 8.44693 105.081 9.27654C105.671 10.1061 106.545 11.0489 107.701 12.1047C108.661 13.0098 109.436 13.8142 110.026 14.5182C110.617 15.1969 111.121 16.0265 111.539 17.007C111.958 17.9874 112.167 19.1061 112.167 20.3631C112.167 22.5 111.65 24.1466 110.617 25.3031C109.583 26.4344 108.083 27 106.114 27C104.146 27 102.645 26.4344 101.612 25.3031C100.578 24.1466 100.061 22.5 100.061 20.3631V18.7416H103.9V20.6271C103.9 22.3366 104.601 23.1913 106.003 23.1913C107.406 23.1913 108.107 22.3366 108.107 20.6271C108.107 19.5209 107.812 18.5531 107.221 17.7235C106.655 16.8939 105.794 15.9511 104.638 14.8953C103.678 13.9902 102.903 13.1983 102.313 12.5196C101.722 11.8156 101.218 10.9735 100.8 9.99302C100.381 9.01257 100.172 7.89385 100.172 6.63687Z" fill="#1F2124"/>
<path d="M117.97 0.301674V26.6983H113.91V0.301674H117.97Z" fill="#1F2124"/>
<path d="M131.723 0.301674V4.07262H127.479V26.6983H123.419V4.07262H119.174V0.301674H131.723Z" fill="#1F2124"/>
<path d="M142.561 11.426V15.1969H136.988V22.9274H144V26.6983H132.928V0.301674H144V4.07262H136.988V11.426H142.561Z" fill="#1F2124"/>
</svg>
